<?xml version="1.0" standalone="no"?>
<!DOCTYPE svg PUBLIC "-//W3C//DTD SVG 1.1//EN" "http://www.w3.org/Graphics/SVG/1.1/DTD/svg11.dtd" >
<svg xmlns="http://www.w3.org/2000/svg" xmlns:xlink="http://www.w3.org/1999/xlink" version="1.1">
<metadata></metadata>
<defs>
<font id="elektra_medium_proitalic" horiz-adv-x="1148" >
<font-face units-per-em="2048" ascent="1638" descent="-410" />
<missing-glyph horiz-adv-x="544" />
<glyph horiz-adv-x="0" />
<glyph horiz-adv-x="682" />
<glyph unicode=" "  horiz-adv-x="544" />
<glyph unicode="&#x09;" horiz-adv-x="544" />
<glyph unicode="&#xa0;" horiz-adv-x="544" />
<glyph unicode="!" horiz-adv-x="669" d="M100 143q20 91 59 118.5t132 27.5q96 0 123.5 -27.5t7.5 -118.5q-21 -98 -60 -127.5t-135 -29.5q-93 0 -120.5 29.5t-6.5 127.5zM225 424l80 618h293l-188 -618h-185z" />
<glyph unicode="&#x22;" horiz-adv-x="757" d="M211 936l82 491h229l-143 -491h-168zM557 936l86 491h223l-143 -491h-166z" />
<glyph unicode="#" horiz-adv-x="1222" d="M10 248l49 174h205l62 221h-209l49 174h209l63 225h215l-63 -225h203l63 225h215l-63 -225h223l-49 -174h-224l-61 -221h227l-49 -174h-225l-70 -248h-215l70 248h-205l-68 -248h-215l68 248h-205zM479 422h203l61 221h-202z" />
<glyph unicode="$" horiz-adv-x="1064" d="M31 27l98 198q106 -34 268 -41l54 250q-170 18 -241 84t-40 211q61 289 412 328l45 213h141l-43 -209q175 -4 303 -49l-94 -193q-87 30 -254 37l-49 -233q170 -24 238 -96t38 -214q-61 -286 -411 -329l-50 -226h-141l47 222q-196 4 -321 47zM399 741q-9 -43 12 -65.5 t83 -32.5l45 213q-118 -16 -140 -115zM539 188q122 17 141 117q10 45 -10 70.5t-84 38.5z" />
<glyph unicode="%" horiz-adv-x="1562" d="M91.5 615q0.5 57 17.5 135q27 127 75 198t116.5 98t176.5 27q65 0 109.5 -9t77 -31t46.5 -59t14 -92t-17 -132q-40 -190 -125 -263t-246 -73q-64 0 -108.5 10t-76.5 33.5t-46 62t-13.5 95.5zM186 0l985 1042h218l-990 -1042h-213zM286 592.5q15 -39.5 81 -39.5 q68 0 97 38.5t54 156.5q25 117 12.5 152.5t-81.5 35.5q-67 0 -98.5 -36.5t-55.5 -151.5q-24 -116 -9 -155.5zM853.5 144q-1.5 65 16.5 163q40 186 123.5 254t245.5 68q65 0 109.5 -9t77 -30.5t46.5 -58.5t13.5 -92t-17.5 -132q-40 -192 -123.5 -264t-244.5 -72 q-81 0 -131 15.5t-82 54t-33.5 103.5zM1047.5 149.5q14.5 -38.5 80.5 -38.5q68 0 97.5 38t54.5 156q25 117 12 152t-82 35q-67 0 -98 -36t-55 -151q-24 -117 -9.5 -155.5z" />
<glyph unicode="&#x26;" horiz-adv-x="1429" d="M20 276q59 265 353 279q-72 5 -115 24t-58.5 53.5t-15.5 74t13 98.5q21 103 70 158.5t152.5 82.5t287.5 27q183 0 273.5 -27t114.5 -82.5t3 -158.5q-25 -115 -97 -179t-217 -75q125 -14 238 -141q95 92 143 202h275q-73 -184 -281 -352q69 -101 139 -260h-280 q-13 27 -66 131q-277 -160 -534 -160q-258 0 -346 64.5t-52 240.5zM297 311q-18 -82 20 -112.5t150 -30.5q102 0 205.5 34t181.5 91q-117 160 -303 160q-52 0 -87.5 -4.5t-73 -18t-60.5 -43.5t-33 -76zM444 766q-15 -68 22.5 -92.5t145.5 -24.5q109 0 162.5 25t67.5 92 q14 65 -21 90t-151 25q-117 0 -164.5 -25t-61.5 -90z" />
<glyph unicode="'" horiz-adv-x="413" d="M211 936l82 491h229l-143 -491h-168z" />
<glyph unicode="(" horiz-adv-x="706" d="M109 238.5q4 124.5 36 273.5q39 185 103.5 332t147 246t173.5 162.5t195 97.5l76 -189q-56 -20 -102.5 -47.5t-95.5 -77t-88.5 -117.5t-76.5 -171.5t-65 -235.5t-35 -235t3.5 -171t38.5 -118t62 -77.5t82 -47.5l-155 -189q-70 27 -125 71.5t-96.5 115.5t-61.5 162 t-16 215.5z" />
<glyph unicode=")" horiz-adv-x="706" d="M-121 -137q56 20 102.5 47.5t95.5 77t88.5 117.5t76.5 171.5t65 235.5q27 131 33.5 233.5t-4 170.5t-38.5 118t-62 77.5t-82 47.5l157 191q70 -27 124.5 -72t95.5 -115.5t61 -162t16 -216t-35 -272.5q-32 -149 -81 -274t-107.5 -216.5t-130 -162t-145.5 -115.5t-156 -72z " />
<glyph unicode="*" horiz-adv-x="1011" d="M166 981l45 205h264l-84 231l203 103l82 -230l180 230l162 -103l-184 -231h266l-45 -205h-267l84 -231l-200 -101l-84 225l-178 -225l-160 103l180 229h-264z" />
<glyph unicode="+" horiz-adv-x="1191" d="M127 621l51 241h375l80 377h244l-80 -377h377l-52 -241h-377l-79 -377h-244l80 377h-375z" />
<glyph unicode="," horiz-adv-x="583" d="M-150 -326l271 537h303l-348 -537h-226z" />
<glyph unicode="-" horiz-adv-x="622" d="M53 455l51 241h504l-51 -241h-504z" />
<glyph unicode="." horiz-adv-x="583" d="M59 150q19 90 57 116.5t132 26.5q98 0 125.5 -26t7.5 -117q-21 -99 -61.5 -129.5t-137.5 -30.5q-92 0 -118 31t-5 129z" />
<glyph unicode="/" horiz-adv-x="874" d="M-119 0l852 1042h279l-854 -1042h-277z" />
<glyph unicode="0" d="M99.5 304q0.5 95 27.5 222q33 157 85.5 264.5t126 169t160 87.5t199.5 26q91 0 157 -16t115 -54t72 -100.5t23 -156.5t-27 -220q-33 -158 -85 -266.5t-125.5 -171.5t-160.5 -90t-202 -27q-91 0 -156.5 16.5t-114.5 55.5t-72 102.5t-22.5 158.5zM360 346q-4 -68 13 -105.5 t48.5 -51t86.5 -13.5q76 0 121 26t81 101t66 219q19 90 24.5 151t0.5 100t-25.5 59.5t-48 28t-72.5 7.5q-75 0 -119 -23.5t-81 -99t-68 -223.5q-23 -108 -27 -176z" />
<glyph unicode="1" d="M225 809l707 264l-227 -1073h-254l155 741l-350 -145z" />
<glyph unicode="2" d="M16 0l39 186q195 105 312.5 172.5t198 118t118.5 87.5t54.5 65.5t25.5 68.5q18 79 -23.5 111.5t-167.5 32.5q-71 0 -169 -15t-150 -36l-12 235q86 19 206.5 33t217.5 14q171 0 263.5 -34.5t120.5 -105t3 -188.5q-22 -102 -78 -179.5t-186 -165.5t-357 -193h524l-43 -207 h-897z" />
<glyph unicode="3" d="M23 10l100 228q128 -50 315 -50q145 0 201.5 30t71.5 108q15 72 -29.5 100.5t-165.5 28.5h-160l39 190h160q113 0 164 22.5t63 82.5t-27.5 83t-168.5 23q-187 0 -334 -45l-4 221q179 41 389 41q184 0 282 -26.5t130.5 -83.5t11.5 -158q-25 -116 -93 -179.5t-212 -74.5 q149 -7 196 -77.5t19 -197.5q-36 -174 -165 -239.5t-407 -65.5q-217 0 -376 39z" />
<glyph unicode="4" d="M6 248l21 96q123 145 312 344.5t349 353.5h336l-127 -593h184l-43 -201h-184l-51 -248h-244l51 248h-604zM356 449h297l86 401q-233 -229 -383 -401z" />
<glyph unicode="5" d="M25 10l92 209q48 -16 142 -26.5t167 -10.5q150 0 217 29t82 104q19 84 -29.5 116t-191.5 32q-154 0 -326 -21l129 600h793l-45 -211h-539l-41 -188q123 6 152 6q235 0 314.5 -73.5t41.5 -253.5q-42 -197 -177.5 -274t-404.5 -77q-96 0 -204.5 10t-171.5 29z" />
<glyph unicode="6" d="M102 287.5q0 97.5 29 234.5q33 156 92.5 264.5t146 170.5t190 89t239.5 27q184 0 356 -51l-102 -209q-150 47 -293 47q-171 0 -248.5 -49.5t-112.5 -189.5q147 24 275 24q230 0 314 -73t44 -263q-21 -98 -63 -164t-110 -104t-155 -54t-210 -16q-99 0 -166.5 13t-122 48.5 t-79 96.5t-24.5 158.5zM348 343q-2 -46 6 -76.5t22 -51t38.5 -31t50 -14.5t61.5 -4q125 0 177 31.5t69 115.5q20 92 -17.5 123t-162.5 31q-117 0 -230 -18q-12 -60 -14 -106z" />
<glyph unicode="7" d="M174 0q143 216 312.5 436t316.5 385h-629l47 221h991l-10 -49q-191 -214 -383.5 -476t-349.5 -517h-295z" />
<glyph unicode="8" d="M34 171q1 46 11 105q28 127 106 197.5t230 77.5q-96 8 -146.5 41.5t-57.5 87t7 125.5q21 102 71.5 158t155 83t287.5 27q139 0 223 -14t130 -46t53.5 -83t-6.5 -125q-25 -117 -91.5 -180t-209.5 -74q149 -7 196 -77.5t19 -197.5q-36 -177 -154 -241t-393 -64 q-92 0 -159.5 6t-120.5 20t-83.5 37t-49.5 57t-18 80zM313 311q-18 -80 22 -110.5t171 -30.5q132 0 185 30.5t71 110.5q17 80 -28.5 111t-168.5 31q-121 0 -178 -31t-74 -111zM428 766q-13 -66 27.5 -91.5t152.5 -25.5q115 0 167 25.5t65 91.5q14 66 -24 90.5t-159 24.5 q-119 0 -167 -24.5t-62 -90.5z" />
<glyph unicode="9" d="M139 717q40 193 171 274.5t378 81.5q91 0 158 -8.5t120 -28t84.5 -51.5t48 -79.5t15 -110.5t-19.5 -146q-17 -78 -56.5 -153.5t-87.5 -135t-123 -127t-139.5 -116.5t-159.5 -117h-338q195 128 338 237t177 158q-168 -20 -232 -20q-216 0 -295 75.5t-39 266.5zM403 717 q-20 -90 14.5 -117t164.5 -27q98 0 209 15q34 47 38 76q27 126 -11.5 170.5t-160.5 44.5q-129 0 -181.5 -36.5t-72.5 -125.5z" />
<glyph unicode=":" horiz-adv-x="583" d="M59 150q19 90 57 116.5t132 26.5q98 0 125.5 -26t7.5 -117q-21 -99 -61.5 -129.5t-137.5 -30.5q-92 0 -118 31t-5 129zM221 909q20 92 58 119t131 27q98 0 125.5 -27t7.5 -119q-21 -98 -60.5 -127.5t-136.5 -29.5q-93 0 -119.5 29.5t-5.5 127.5z" />
<glyph unicode=";" horiz-adv-x="583" d="M-150 -326l271 537h303l-348 -537h-226zM221 909q20 92 58 119t131 27q98 0 125.5 -27t7.5 -119q-21 -98 -60.5 -127.5t-136.5 -29.5q-93 0 -119.5 29.5t-5.5 127.5z" />
<glyph unicode="&#x3c;" horiz-adv-x="1191" d="M213 676l27 125l868 581l98 -180l-647 -461l451 -465l-172 -184z" />
<glyph unicode="=" horiz-adv-x="1191" d="M68 344l51 242h995l-51 -242h-995zM184 891l52 242h995l-51 -242h-996z" />
<glyph unicode="&#x3e;" horiz-adv-x="1191" d="M129 274l647 461l-450 467l172 182l624 -583l-26 -125l-871 -582z" />
<glyph unicode="?" horiz-adv-x="987" d="M203 831l6 211q204 39 352 39q242 0 330 -63t57 -209q-24 -120 -111 -207.5t-274 -187.5h-252q168 110 245 184t97 166q11 57 -22 80.5t-135 23.5q-161 0 -293 -37zM231 150q19 90 57 116.5t132 26.5q98 0 125.5 -26t7.5 -117q-21 -98 -60.5 -128t-136.5 -30 q-93 0 -119.5 30t-5.5 128z" />
<glyph unicode="@" horiz-adv-x="1490" d="M89 332.5q2 85.5 26 197.5q28 131 74 227.5t105 159t140 99.5t169.5 52t201.5 15q75 0 126 -6t94.5 -23t66 -46t33.5 -76.5t6 -114t-25 -158.5q-18 -86 -38 -146.5t-47 -105.5t-56.5 -71.5t-74 -42.5t-92.5 -21.5t-118 -5.5q-63 0 -107 4.5t-78.5 16t-53.5 30t-28.5 48 t-7.5 68t13 91.5q22 105 64.5 161t107 76.5t174.5 20.5q95 0 170 -10q11 78 -23.5 107.5t-138.5 29.5q-76 0 -129 -5.5t-101.5 -20.5t-80.5 -41t-60.5 -68.5t-48.5 -101t-37 -140.5q-18 -83 -22 -142t7.5 -104t37 -72.5t73.5 -44.5t109 -23.5t150 -6.5q133 0 218 19t149 71 t102 135t67 218q40 184 25 290h201q13 -117 -27 -297q-30 -142 -77 -245.5t-110.5 -173.5t-152 -112.5t-192.5 -60.5t-240 -18q-115 0 -199.5 10.5t-153 36t-109.5 67.5t-62.5 105t-19.5 148.5zM627 532q-13 -63 8 -83.5t98 -20.5q72 0 105.5 27.5t50.5 107.5l12 62 q-70 8 -125 8q-77 0 -106.5 -18.5t-42.5 -82.5z" />
<glyph unicode="A" horiz-adv-x="1396" d="M-121 0q167 320 393.5 714t425.5 713h424q36 -355 94.5 -752t116.5 -675h-299q-39 199 -63 356h-625q-76 -142 -184 -356h-283zM469 588h475q-42 283 -70 610h-55q-150 -249 -350 -610z" />
<glyph unicode="B" horiz-adv-x="1458" d="M78 0l303 1427h768q104 0 169.5 -24t91.5 -69q26 -44 30 -108q1 -10 1 -20q0 -56 -16 -121q-16 -77 -37.5 -128.5t-62 -96.5t-106 -70.5t-160.5 -33.5q99 -4 159.5 -32t83.5 -75q22 -47 24 -113q0 -5 1 -9q0 -62 -18 -136q-82 -391 -451 -391h-780zM395 227h451 q138 0 180 201q11 50 11 88q0 123 -111 123h-443zM530 858h439q65 0 102 44t55 128q10 44 10 76q0 31 -10 51q-20 41 -86 41h-438z" />
<glyph unicode="C" horiz-adv-x="1212" d="M160 727q37 175 91 301t122.5 210t162.5 133.5t201 70t248 20.5q98 0 209.5 -15t189.5 -38l-110 -238q-50 20 -135 33t-158 13q-63 0 -109 -3t-92.5 -12t-80 -25t-66.5 -42t-57.5 -62t-48 -86.5t-42.5 -114.5t-36 -147q-23 -109 -31 -189q-3 -32 -4 -61q0 -42 7 -76 q11 -57 35 -91.5t71 -54.5t102.5 -27t138.5 -7q74 0 164 12.5t149 32.5l9 -241q-87 -23 -204 -37.5t-216 -14.5q-140 0 -239.5 23t-171 75.5t-104.5 140.5q-33 86 -33 211q0 130 38 306z" />
<glyph unicode="D" horiz-adv-x="1507" d="M78 0l303 1427h545q117 0 204.5 -14t158 -46t113 -85.5t64.5 -131.5q18 -65 17 -150v-36q-4 -107 -35 -245q-44 -206 -113.5 -345.5t-174 -221.5t-233 -117t-304.5 -35h-545zM397 233h248q99 0 166.5 12t124.5 42t96 86t70 138.5t57 205.5q17 80 25 141q8 57 8 105v5 q0 50 -8.5 84.5t-29 60.5t-46 41t-67 24.5t-86 12.5t-107.5 3h-248z" />
<glyph unicode="E" horiz-adv-x="1269" d="M78 0l303 1427h1036l-51 -233h-766l-70 -330h547l-49 -231h-547l-84 -400h766l-49 -233h-1036z" />
<glyph unicode="F" horiz-adv-x="1196" d="M78 0l303 1427h1016l-51 -233h-746l-84 -403h547l-49 -232h-547l-119 -559h-270z" />
<glyph unicode="G" horiz-adv-x="1433" d="M160 727q31 145 74.5 257t102 193t127.5 136.5t157.5 88t185 46.5t217.5 14q99 0 221.5 -15t198.5 -38l-107 -235q-49 19 -156 31t-188 12q-88 0 -147 -6t-117 -24.5t-96 -51.5t-73.5 -88t-61.5 -133.5t-49 -188.5q-24 -110 -31 -189q-4 -33 -4 -61q0 -42 7 -76 q11 -57 35 -92t71 -55.5t102.5 -27.5t138.5 -7q94 0 188 21l78 368h-311l49 228h588l-170 -801q-92 -27 -242 -44.5t-278 -17.5q-140 0 -239.5 23t-171 75.5t-104.5 140.5q-33 86 -33 211q0 130 38 306z" />
<glyph unicode="H" horiz-adv-x="1507" d="M78 0l303 1427h270l-116 -544h610l117 544h266l-303 -1427h-267l134 633h-611l-133 -633h-270z" />
<glyph unicode="I" horiz-adv-x="630" d="M78 0l303 1427h270l-303 -1427h-270z" />
<glyph unicode="J" horiz-adv-x="944" d="M-86 27l104 241q100 -43 236 -43q86 0 145.5 45t83.5 158l213 999h273l-219 -1034q-21 -99 -61.5 -174.5t-90.5 -121.5t-114 -75t-125.5 -40t-131.5 -11q-170 0 -313 56z" />
<glyph unicode="K" horiz-adv-x="1355" d="M78 0l303 1427h270l-303 -1427h-270zM510 754q86 54 279 236t421 437h328q-234 -252 -418.5 -427t-259.5 -228q58 -46 177.5 -251t242.5 -521h-332q-128 326 -251 525.5t-187 228.5z" />
<glyph unicode="L" horiz-adv-x="1128" d="M78 0l303 1427h270l-254 -1191h674l-49 -236h-944z" />
<glyph unicode="M" horiz-adv-x="1875" d="M78 0l303 1427h369q115 -423 206 -913q270 459 590 913h350l-303 -1427h-264l225 1063q-265 -398 -596 -932h-210q-121 665 -185 932l-225 -1063h-260z" />
<glyph unicode="N" horiz-adv-x="1585" d="M78 0l303 1427h354q205 -487 381 -1030l219 1030h269l-304 -1427h-329q-183 548 -402 1075l-227 -1075h-264z" />
<glyph unicode="O" horiz-adv-x="1576" d="M123 466q6 114 37 261q46 215 117.5 359t177.5 226.5t234.5 116t305.5 33.5q117 0 205 -14t159 -47.5t114 -88.5q43 -54 65 -136q17 -66 17 -152q0 -20 -1 -42q-5 -112 -36 -255q-46 -219 -118.5 -366.5t-178.5 -233t-235 -121t-306 -35.5q-117 0 -205.5 15t-159 50 t-113.5 92q-42 56 -64 140q-17 65 -16 150q0 23 1 48zM412 400q6 -58 25.5 -92.5t61.5 -56t96 -29t136 -7.5t139.5 7.5t108.5 29t85 56t65.5 93t54.5 135t47 187.5q17 83 27 145q9 62 10 114v14q0 43 -6 74q-6 36 -24 63t-42 43t-63 26t-83 13.5t-106 3.5q-84 0 -140 -6.5 t-107 -26.5t-84.5 -52.5t-64.5 -90t-53.5 -133.5t-45.5 -187t-33 -187q-6 -47 -6 -88q0 -25 2 -48z" />
<glyph unicode="P" horiz-adv-x="1378" d="M78 0l303 1427h743q314 0 315 -308q0 -80 -22 -181q-20 -95 -61 -177t-101 -148t-145 -104t-184 -38h-480l-98 -471h-270zM496 696h397q85 0 143 61.5t84 182.5q14 63 14 111q0 147 -128 147h-404z" />
<glyph unicode="Q" horiz-adv-x="1603" d="M137 423.5q0 128.5 37 303.5q37 173 91.5 299t124.5 210t165 134t203.5 71t249.5 21q117 0 205 -14t159 -47.5t114 -88.5t65 -136q18 -67 18 -153q0 -20 -1 -41q-5 -111 -36 -255q-70 -331 -202.5 -494t-344.5 -202q138 -41 334 -424h-315q-75 172 -160 264t-156 100 q-140 0 -239.5 22.5t-172 75t-106 139.5t-33.5 215.5zM426 400q5 -58 24.5 -92.5t61 -56t95.5 -29t136 -7.5q83 0 140.5 7.5t109 29t85.5 56t65.5 93t54.5 135t47 187.5q23 111 32 187q5 43 5 80q0 28 -3 54q-7 57 -26.5 89.5t-62.5 52.5t-96.5 26.5t-137.5 6.5t-139.5 -6.5 t-107 -26.5t-84.5 -52.5t-63.5 -90t-53 -133.5t-45.5 -187q-24 -111 -33 -187q-7 -49 -7 -90q0 -24 3 -46z" />
<glyph unicode="R" horiz-adv-x="1445" d="M78 0l303 1427h743q88 0 152 -21.5t101 -58.5t54.5 -90.5t17.5 -113.5t-15 -131q-18 -81 -51 -147t-87 -121t-135.5 -87t-185.5 -36q68 -26 146.5 -167t199.5 -454h-334q-104 288 -184 416.5t-150 128.5h-190l-115 -545h-270zM510 768h403q79 0 133.5 53t77.5 156 q10 49 10 87q0 49 -16 79q-30 55 -106 55h-410z" />
<glyph unicode="S" horiz-adv-x="1273" d="M23 35l108 233q64 -22 166.5 -36.5t204.5 -14.5q176 0 261 41t109 148q7 24 7 45q1 13 -3 27q-8 32 -36 57t-90.5 42.5t-161.5 26.5q-239 24 -329 112q-62 61 -62 172q0 49 12 109q53 246 226 355.5t480 109.5q115 0 230 -17.5t194 -45.5l-110 -234q-57 22 -158.5 37 t-206.5 15q-172 0 -255.5 -42t-106.5 -145q-5 -24 -5 -44q-1 -27 9 -47q16 -33 80 -56t190 -35q246 -26 338 -126q64 -69 65 -186q0 -53 -14 -116q-27 -125 -82.5 -211.5t-145.5 -139t-206.5 -75.5t-275.5 -23q-118 0 -235 17.5t-197 46.5z" />
<glyph unicode="T" horiz-adv-x="1247" d="M156 1194l51 233h1235l-51 -233h-482l-252 -1194h-272l252 1194h-481z" />
<glyph unicode="U" horiz-adv-x="1519" d="M130 304q2 58 17 128l213 995h273l-203 -954q-11 -48 -10 -87q0 -74 39 -111q60 -56 243 -56q180 0 267 54t118 200l203 954h269l-211 -995q-24 -111 -68.5 -192t-103.5 -132.5t-142.5 -82t-174 -42.5t-208.5 -12q-73 0 -132.5 4.5t-115 15t-97.5 28t-77 42.5t-57 61 q-20 35 -32 80q-10 38 -10 86v16z" />
<glyph unicode="V" horiz-adv-x="1327" d="M162 1427h299q48 -245 94.5 -571t67.5 -582q308 499 639 1153h284q-168 -321 -395.5 -715t-429.5 -712h-346q-36 364 -94 760t-119 667z" />
<glyph unicode="W" horiz-adv-x="1996" d="M197 1427h295q61 -509 73 -1091q355 689 520 1091h250q47 -728 47 -1044v-47q279 521 531 1091h278q-353 -763 -716 -1427h-345q3 126 3 262q0 332 -19 717q-158 -379 -469 -979h-342q-37 931 -106 1427z" />
<glyph unicode="X" horiz-adv-x="1380" d="M-111 0q265 262 697 721q-214 408 -385 706h346q99 -173 258 -471q235 254 428 471h332q-192 -215 -643 -700q246 -480 362 -727h-336q-192 392 -243 494q-430 -440 -484 -494h-332z" />
<glyph unicode="Y" horiz-adv-x="1306" d="M123 1427h352q146 -253 281 -544q300 314 493 544h328q-370 -420 -750 -811l-129 -616h-270l129 614q-254 516 -434 813z" />
<glyph unicode="Z" horiz-adv-x="1271" d="M-68 0l13 66q230 242 523 566t499 562h-738l52 233h1157l-15 -61q-216 -260 -519.5 -598t-502.5 -535h768l-49 -233h-1188z" />
<glyph unicode="[" horiz-adv-x="774" d="M14 -309l353 1655h553l-48 -222h-288l-258 -1214h288l-47 -219h-553z" />
<glyph unicode="\" horiz-adv-x="874" d="M102 1042h279l410 -1042h-277z" />
<glyph unicode="]" horiz-adv-x="774" d="M-131 -309l45 219h289l258 1214h-289l47 222h553l-352 -1655h-551z" />
<glyph unicode="^" horiz-adv-x="1087" d="M51 606l570 821h243l221 -821h-274l-131 545l-361 -545h-268z" />
<glyph unicode="_" horiz-adv-x="962" d="M-115 -340l49 242h844l-51 -242h-842z" />
<glyph unicode="`" horiz-adv-x="985" d="M391 1427h271l192 -264h-225z" />
<glyph unicode="a" horiz-adv-x="1153" d="M-96 0q111 222 275 507t321 535h395q54 -665 143 -1042h-266q-25 107 -43 252h-436q-71 -130 -127 -252h-262zM391 438h314q-24 191 -41 400h-43q-91 -149 -230 -400z" />
<glyph unicode="b" horiz-adv-x="1187" d="M39 0l221 1042h629q87 0 141.5 -17t78 -49.5t27.5 -78.5q1 -10 1 -21q0 -38 -11 -83q-12 -55 -29.5 -94t-49.5 -71.5t-83.5 -51t-125.5 -23.5q76 -2 124 -22.5t68 -55.5t23 -83q1 -9 1 -18q0 -41 -12 -89q-60 -285 -366 -285h-637zM334 197h311q60 0 92 27t45 91 q6 28 6 50q0 33 -14 53q-22 33 -82 33h-305zM428 637h301q54 0 82.5 25.5t40.5 80.5q5 24 5 41q0 27 -11 40q-18 22 -74 22h-301z" />
<glyph unicode="c" horiz-adv-x="962" d="M89 336q2 84 24 190q33 156 91.5 264.5t141.5 169.5t179 87t220 26q77 0 166 -14t142 -35l-105 -217q-106 45 -231 45q-76 0 -124 -11t-92 -45t-73.5 -100.5t-52.5 -173.5q-17 -82 -19 -140v-12q0 -50 10 -83q12 -37 42.5 -57.5t69 -28.5t97.5 -8q123 0 254 49l11 -217 q-64 -24 -158 -39t-170 -15q-82 0 -146 11.5t-118 37t-88 68.5q-35 44 -54 104q-17 55 -17 128v16z" />
<glyph unicode="d" horiz-adv-x="1196" d="M39 0l221 1042h442q86 0 151.5 -10t118.5 -33.5t85.5 -62.5t50.5 -96q15 -49 15 -113q0 -11 -1 -22q-3 -78 -24 -179q-32 -152 -84.5 -254.5t-131 -162t-174.5 -84.5t-227 -25h-442zM334 197h170q72 0 120 12.5t90.5 47t71 99t50.5 166.5q18 84 20 142v13q0 49 -10 81 q-12 36 -42 55.5t-67 26t-96 6.5h-170z" />
<glyph unicode="e" horiz-adv-x="1034" d="M39 0l221 1042h815l-45 -206h-561l-41 -195h430l-41 -195h-430l-51 -239h561l-43 -207h-815z" />
<glyph unicode="f" horiz-adv-x="970" d="M39 0l221 1042h815l-45 -206h-561l-51 -246h430l-43 -199h-430l-82 -391h-254z" />
<glyph unicode="g" horiz-adv-x="1165" d="M90 336q1 84 23 190q26 125 72.5 220t105 156.5t135.5 100t159 54.5t181 16q79 0 180.5 -14t157.5 -35l-111 -209q-113 45 -264 45q-75 0 -125.5 -12.5t-96.5 -48t-78 -103.5t-54 -174q-17 -82 -18 -141v-8q0 -54 12 -89q13 -38 43 -60.5t68.5 -31t94.5 -8.5q99 0 175 29 l41 197h-222l43 198h449l-121 -565q-92 -31 -210 -51.5t-218 -20.5q-81 0 -145 11.5t-117.5 37t-88.5 68.5t-54 104q-18 56 -18 132q0 6 1 12z" />
<glyph unicode="h" horiz-adv-x="1202" d="M39 0l221 1042h254l-82 -383h410l82 383h254l-222 -1042h-254l93 442h-410l-92 -442h-254z" />
<glyph unicode="i" horiz-adv-x="536" d="M39 0l221 1042h254l-221 -1042h-254z" />
<glyph unicode="j" horiz-adv-x="847" d="M-100 18l96 218q93 -41 221 -41q176 0 215 184l141 663h254l-145 -682q-85 -389 -487 -389q-174 0 -295 47z" />
<glyph unicode="k" horiz-adv-x="1128" d="M39 0l221 1042h254l-104 -491q113 78 508 491h301q-178 -187 -312 -311.5t-188 -161.5q37 -27 120.5 -176.5t188.5 -392.5h-299q-247 516 -319 551l-117 -551h-254z" />
<glyph unicode="l" horiz-adv-x="884" d="M39 0l221 1042h254l-174 -815h491l-47 -227h-745z" />
<glyph unicode="m" horiz-adv-x="1542" d="M39 0l221 1042h371q70 -266 137 -620q185 312 397 620h355l-222 -1042h-251l159 760q-208 -310 -434 -699h-190q-80 500 -131 699l-160 -760h-252z" />
<glyph unicode="n" horiz-adv-x="1214" d="M39 0l221 1042h250q194 -351 293 -636l135 636h254l-221 -1042h-254q-146 417 -285 657l-139 -657h-254z" />
<glyph unicode="o" horiz-adv-x="1204" d="M86 307q0 93 27 219q33 158 86 265t131 168.5t172 87.5t223 26q86 0 151 -11t116.5 -36t83.5 -66q30 -42 46 -102q12 -48 13 -111q0 -17 -1 -33q-4 -82 -26 -188q-34 -159 -86.5 -267t-130 -171.5t-173 -90t-226.5 -26.5q-103 0 -176 16.5t-126.5 55.5t-77.5 103 q-26 65 -26 161zM352 375q-2 -24 -3 -45q1 -30 5 -54q6 -40 30.5 -60.5t59.5 -29t91 -8.5q96 0 150 26t92 99t69 219q19 91 24 151q2 25 2 46q0 30 -4 53q-7 39 -33 59t-61 27.5t-94 7.5q-72 0 -115 -11.5t-80 -48.5t-61.5 -103.5t-48.5 -180.5q-19 -88 -23 -147z" />
<glyph unicode="p" horiz-adv-x="1153" d="M39 0l221 1042h606q172 0 232 -82q38 -52 38 -138q0 -51 -14 -115q-71 -328 -377 -328h-372l-80 -379h-254zM412 565h301q112 0 141 137q7 32 7 57q0 87 -89 87h-301z" />
<glyph unicode="q" horiz-adv-x="1204" d="M88 336q3 84 25 190q33 158 86 265t131 168.5t172 87.5t223 26q86 0 151 -11t116.5 -36t83 -66.5t46.5 -101.5q13 -49 13 -111q0 -16 -1 -33q-4 -82 -26 -188q-46 -220 -132 -341t-222 -169q67 -17 135.5 -106.5t161.5 -282.5h-285q-74 168 -149.5 256t-145.5 88 q-78 0 -137.5 11.5t-108.5 37t-79.5 68.5t-45.5 104q-13 50 -13 115q0 14 1 29zM352 375q-2 -24 -2 -45q0 -30 4 -54q6 -40 30.5 -61.5t59.5 -30t91 -8.5q96 0 150 26.5t92 100t69 219.5q19 91 24 151q2 26 2 48q0 29 -4 51q-6 40 -32 60.5t-61 28t-93 7.5q-57 0 -94.5 -7.5 t-71.5 -28t-57.5 -60t-44 -99.5t-39.5 -151q-19 -88 -23 -147z" />
<glyph unicode="r" horiz-adv-x="1175" d="M39 0l221 1042h614q267 0 267 -212q0 -42 -11 -93q-58 -276 -348 -286q54 -15 90 -49t81.5 -127t109.5 -275h-295q-37 116 -68.5 190t-62 113.5t-58 53.5t-63.5 14h-145l-78 -371h-254zM414 571h288q128 0 158 136q5 24 5 43q0 35 -16 56q-24 32 -87 32h-293z" />
<glyph unicode="s" horiz-adv-x="1005" d="M2 27l96 200q54 -21 138.5 -35t160.5 -14q112 0 164 25t68 102q3 14 3 26q0 37 -30 59q-40 28 -170 40q-179 14 -250 78q-49 44 -49 132q0 39 10 87q21 99 67.5 167.5t116.5 107t151.5 55t185.5 16.5q181 0 337 -57l-98 -199q-138 49 -293 49q-104 0 -150.5 -22.5 t-62.5 -98.5q-3 -13 -3 -24q0 -36 30 -53q39 -23 164 -35q189 -21 259 -91q48 -48 48 -135q0 -40 -10 -88q-21 -99 -67 -168t-115.5 -107.5t-151 -55.5t-186.5 -17q-88 0 -192.5 15.5t-170.5 40.5z" />
<glyph unicode="t" horiz-adv-x="993" d="M82 821l47 221h973l-47 -221h-361l-174 -821h-254l174 821h-358z" />
<glyph unicode="u" horiz-adv-x="1183" d="M121 422l133 620h254l-135 -634q-12 -52 -12 -89q0 -47 18 -73q32 -47 151 -47t170.5 47t77.5 162l135 634h252l-133 -620q-54 -253 -175.5 -352t-373.5 -99q-253 0 -335 99q-49 60 -49 175q0 76 22 177z" />
<glyph unicode="v" horiz-adv-x="1069" d="M137 1042h264q67 -379 91 -786q269 454 426 786h258q-240 -472 -596 -1042h-314q-46 616 -129 1042z" />
<glyph unicode="w" horiz-adv-x="1699" d="M119 1042h268q57 -354 70 -782q84 150 205 392t188 390h248q18 -148 30.5 -379t12.5 -403q260 450 409 782h258q-265 -540 -577 -1042h-316q1 60 1 116q0 341 -21 582q-152 -344 -348 -698h-314q-42 609 -114 1042z" />
<glyph unicode="x" horiz-adv-x="1067" d="M-90 0q209 197 514 520q-151 304 -291 522h303q84 -142 172 -319q108 116 283 319h283q-211 -238 -469 -514q121 -243 249 -528h-286q-45 111 -150 330q-166 -175 -325 -330h-283z" />
<glyph unicode="y" horiz-adv-x="997" d="M68 1042h294q97 -159 191 -362q151 144 336 362h278q-278 -319 -534 -569l-101 -473h-253l100 473q-182 365 -311 569z" />
<glyph unicode="z" horiz-adv-x="1017" d="M-66 0l11 51q179 179 387.5 407t320.5 363h-510l47 221h900l-13 -51q-145 -175 -355 -406t-345 -364h522l-45 -221h-920z" />
<glyph unicode="{" horiz-adv-x="729" d="M59 412l43 200q46 0 83.5 13t75 45t67 96t49.5 158q75 357 409 436l66 -184q-54 -15 -90 -34t-70.5 -56t-59.5 -97.5t-44 -150.5q-59 -289 -258 -326q20 -4 37 -11.5t37 -22.5t32.5 -40t21 -59t6.5 -84.5t-15 -112.5q-19 -89 -20 -148.5t17 -96t46 -56t77 -35.5 q-68 -84 -143 -182q-49 13 -88.5 34.5t-74.5 56.5t-52 83t-22.5 113.5t14.5 148.5q16 76 16.5 132t-10.5 90t-35 54.5t-51 28t-64 7.5z" />
<glyph unicode="|" horiz-adv-x="759" d="M76 -315l354 1665h268l-354 -1665h-268z" />
<glyph unicode="}" horiz-adv-x="729" d="M-111 -154q53 15 89 34.5t70.5 56.5t59.5 98t44 151q60 290 258 326q-20 3 -37.5 10.5t-37 22t-32.5 39.5t-21.5 59t-6 84.5t15.5 112.5q19 90 20.5 149.5t-17 96.5t-46.5 56.5t-78 35.5l143 182q49 -13 88 -34.5t73.5 -56.5t52 -83t23 -113.5t-14.5 -148.5 q-16 -76 -16.5 -132.5t10.5 -90.5t35 -54.5t51.5 -27.5t64.5 -7l-43 -202q-47 0 -84.5 -12.5t-75.5 -44.5t-67.5 -96t-49.5 -159q-21 -101 -63.5 -179.5t-99 -128.5t-116.5 -81t-130 -47z" />
<glyph unicode="~" horiz-adv-x="1191" d="M131 741q78 97 155.5 148t168.5 51q59 0 122.5 -26.5t108.5 -58.5t97 -58.5t91 -26.5q48 0 87 31t83 110l138 -129q-62 -104 -158 -169.5t-207 -65.5q-52 0 -112 27.5t-104.5 60.5t-98 60.5t-94.5 27.5q-78 0 -158 -123z" />
<glyph unicode="&#xa2;" horiz-adv-x="866" d="M115 535q39 186 139 275t256 105l33 158h137l-33 -155q100 -8 172 -31l-80 -152q-46 21 -127 25l-96 -459q74 8 137 29l15 -150q-67 -26 -187 -39l-35 -170h-137l37 174q-148 18 -209 109.5t-22 280.5zM312.5 380q18.5 -53 70.5 -61l90 424q-116 -16 -158 -213 q-21 -97 -2.5 -150z" />
<glyph unicode="&#xa3;" horiz-adv-x="1050" d="M51 416l39 184h103l20 102q39 184 175.5 277.5t383.5 93.5q186 0 338 -49l-98 -207q-47 17 -129 28t-158 11q-131 0 -190.5 -41t-77.5 -127l-19 -88h316l-39 -184h-316l-43 -203h545l-45 -213h-790l88 416h-103z" />
<glyph unicode="&#xa5;" horiz-adv-x="997" d="M41 197l27 127h278l27 127h-279l27 124h207q-142 284 -258 467h290q95 -152 193 -362q151 144 336 362h276q-227 -258 -436 -467h184l-26 -124h-260l-27 -127h260l-26 -127h-261l-41 -197h-253l40 197h-278z" />
<glyph unicode="&#xa8;" horiz-adv-x="946" d="M293 1282q15 71 43 92t100 21t93.5 -21t7.5 -92q-18 -79 -49 -103t-103 -24t-91 24t-1 103zM729 1282q15 71 43.5 92t101.5 21q71 0 92 -21t7 -92q-18 -79 -48.5 -103t-101.5 -24q-73 0 -92.5 24t-1.5 103z" />
<glyph unicode="&#xa9;" horiz-adv-x="1714" d="M139 466q4 114 35 261q37 173 94 299.5t132 210t177.5 134t218.5 71t267 20.5q126 0 220.5 -14t172 -47.5t125.5 -88.5t73 -136.5t22 -193t-34 -255.5q-37 -176 -95 -305.5t-133.5 -215.5t-178 -138.5t-219.5 -74.5t-268 -22q-125 0 -220 15t-172 49.5t-124 92t-72 141 t-21 197.5zM365.5 517q-7.5 -87 5.5 -150.5t41.5 -103t83.5 -63t123 -32t167 -8.5q100 0 171.5 8.5t137 32t111 63t86 103t70 150.5t55.5 208q25 120 32.5 205.5t-6.5 147.5t-42.5 99.5t-85 59.5t-123.5 29.5t-168 7.5t-171 -7.5t-135.5 -29.5t-110.5 -59.5t-85 -99 t-69 -147.5t-54 -206q-26 -121 -33.5 -208zM503.5 539q-0.5 77 22.5 184q28 133 71.5 219.5t109.5 135t145.5 67t194.5 18.5q155 0 258 -39l-86 -184q-81 33 -201 33q-62 0 -100 -8.5t-70.5 -35.5t-53 -76t-38.5 -132q-13 -63 -15 -106.5t6 -73t30.5 -45.5t54 -22.5 t79.5 -6.5q120 0 215 37l9 -182q-133 -46 -277 -46q-91 0 -154 12t-110.5 42t-68.5 81t-21.5 128z" />
<glyph unicode="&#xab;" horiz-adv-x="1368" d="M88 639l674 571l115 -149l-451 -418l270 -426l-176 -154zM647 639l674 571l115 -149l-451 -418l270 -426l-176 -154z" />
<glyph unicode="&#xad;" horiz-adv-x="622" d="M53 455l51 241h504l-51 -241h-504z" />
<glyph unicode="&#xae;" horiz-adv-x="1169" d="M172 750.5q-3 86.5 25 203.5q31 148 81 246.5t125 155.5t167 80.5t221 23.5q86 0 150 -10t115.5 -33t82.5 -61t46.5 -94t12.5 -132.5t-24 -175.5q-31 -146 -81 -244.5t-125.5 -157t-169.5 -83.5t-223 -25q-103 0 -175.5 15.5t-126 51.5t-76 94.5t-25.5 145zM347 805.5 q-2 -60.5 11 -101.5t47 -64t82 -32.5t121 -9.5q94 0 155.5 15t110 55t79 108t53.5 178q16 78 20.5 133.5t-3.5 95.5t-26 64.5t-53 39t-77.5 19.5t-106.5 5q-94 0 -152 -12.5t-107 -51t-79.5 -108.5t-54.5 -185q-18 -88 -20 -148.5zM403 684l117 545h334q73 0 99 -51t8 -129 q-19 -90 -62 -127t-113 -37q82 -44 82 -201h-174q2 56 -16 106t-41 50h-39l-35 -156h-160zM627 979h110q46 0 56 61q14 58 -31 58h-111z" />
<glyph unicode="&#xb4;" horiz-adv-x="985" d="M334 1163l305 264h272l-354 -264h-223z" />
<glyph unicode="&#xb8;" horiz-adv-x="1312" d="M336 -383l67 111q48 -25 142 -25q48 0 68 11t26 42q9 38 -29 49t-151 5l114 190h101l-19 -86q122 0 166.5 -35.5t24.5 -124.5q-20 -96 -91 -133t-227 -37q-127 0 -192 33z" />
<glyph unicode="&#xbb;" horiz-adv-x="1368" d="M-2 215l451 418l-271 428l174 151l436 -573l-675 -573zM557 215l451 418l-271 428l174 151l437 -573l-676 -573z" />
<glyph unicode="&#x2c6;" horiz-adv-x="1351" d="M465 1163l307 264h250l201 -264h-240l-113 156l-174 -156h-231z" />
<glyph unicode="&#x2da;" horiz-adv-x="1462" d="M668 1317q23 109 89.5 155t198.5 46q126 0 175 -46.5t26 -154.5q-23 -110 -91.5 -155.5t-195.5 -45.5t-176 45.5t-26 155.5zM811 1313q-10 -47 7 -67.5t77 -20.5t85.5 21t35.5 67q10 48 -7 68t-77 20q-61 0 -86.5 -20t-34.5 -68z" />
<glyph unicode="&#x2dc;" horiz-adv-x="1464" d="M455 1262q65 82 126.5 123.5t133.5 41.5q47 0 86.5 -17t62.5 -37t54 -37t63 -17q37 0 66.5 25.5t68.5 93.5l105 -103q-48 -87 -120 -138.5t-161 -51.5q-41 0 -79 17t-62 37t-57 37t-66 17q-65 0 -129 -104z" />
<glyph unicode="&#x401;" horiz-adv-x="1269" d="M78 0l303 1427h1036l-51 -233h-766l-70 -330h547l-49 -231h-547l-84 -400h766l-49 -233h-1036zM594 1655q14 71 44.5 92.5t102.5 21.5q71 0 91.5 -21.5t5.5 -92.5q-17 -77 -47 -101t-101 -24q-72 0 -92.5 24t-3.5 101zM1030 1655q15 71 45 92.5t103 21.5q71 0 91 -21.5 t5 -92.5q-17 -77 -47 -101t-101 -24q-73 0 -93 24t-3 101z" />
<glyph unicode="&#x402;" horiz-adv-x="1544" d="M156 1194l51 233h1235l-51 -233h-482l-57 -274q150 71 301 71q82 0 137 -13.5t97.5 -50.5t58.5 -102t11 -168.5t-36 -250.5q-131 -610 -491 -781l-142 174q48 24 82 47t77.5 68.5t76 105t66.5 156t61 221.5q21 97 27 161t1 105t-27.5 62.5t-53 29t-80.5 7.5 q-80 0 -143.5 -23.5t-73.5 -62.5l-144 -676h-272l252 1194h-481z" />
<glyph unicode="&#x403;" horiz-adv-x="1128" d="M78 0l303 1427h965l-52 -233h-694l-252 -1194h-270zM690 1530l322 264h280l-379 -264h-223z" />
<glyph unicode="&#x404;" horiz-adv-x="1261" d="M124 469q5 113 36 258q37 174 92 300.5t125 210.5t165.5 133.5t203 70t249.5 20.5q99 0 216 -15t194 -38l-111 -238q-50 20 -139.5 33t-163.5 13q-73 0 -126 -4.5t-105 -18t-90 -38t-73 -63.5t-62 -95.5t-50 -133.5h609l-50 -229h-610q-12 -76 -13.5 -134.5t6.5 -102.5 t29 -75t49 -51.5t70.5 -32t90 -16t112.5 -4.5q75 0 170.5 12.5t153.5 32.5l8 -241q-87 -23 -208.5 -37.5t-221.5 -14.5q-116 0 -204.5 15.5t-158.5 51t-113 93.5t-64 141.5t-16 196.5z" />
<glyph unicode="&#x405;" horiz-adv-x="1273" d="M23 35l108 233q64 -22 166.5 -36.5t204.5 -14.5q176 0 261 41t109 148q11 40 3.5 72.5t-35.5 57t-90.5 42t-161.5 26.5q-239 24 -329 112t-50 281q53 246 226 355.5t480 109.5q115 0 230 -17.5t194 -45.5l-110 -234q-57 22 -158.5 37t-206.5 15q-172 0 -255.5 -42 t-106.5 -145q-12 -58 4.5 -91t80 -56t189.5 -35q246 -26 338.5 -126.5t50.5 -301.5q-27 -125 -82.5 -211.5t-145.5 -139t-206.5 -75.5t-275.5 -23q-118 0 -235 17.5t-197 46.5z" />
<glyph unicode="&#x406;" horiz-adv-x="630" d="M78 0l303 1427h270l-303 -1427h-270z" />
<glyph unicode="&#x407;" horiz-adv-x="630" d="M78 0l303 1427h270l-303 -1427h-270zM221 1655q14 71 45 92.5t103 21.5q71 0 91 -21.5t5 -92.5q-17 -77 -47 -101t-101 -24q-72 0 -92.5 24t-3.5 101zM657 1655q15 71 45 92.5t103 21.5q71 0 91 -21.5t5 -92.5q-17 -77 -46.5 -101t-100.5 -24q-73 0 -93.5 24t-3.5 101z " />
<glyph unicode="&#x408;" horiz-adv-x="944" d="M-86 27l104 241q100 -43 236 -43q86 0 145.5 45t83.5 158l213 999h273l-219 -1034q-21 -99 -61.5 -174.5t-90.5 -121.5t-114 -75t-125.5 -40t-131.5 -11q-170 0 -313 56z" />
<glyph unicode="&#x409;" horiz-adv-x="2187" d="M-39 0q201 375 351 723t241 704h920l-109 -512h457q82 0 142.5 -23t95 -63t51 -98t14.5 -125t-19 -147q-47 -222 -163 -340.5t-304 -118.5h-739l250 1184h-401q-170 -588 -502 -1184h-285zM1217 227h393q80 0 128.5 57.5t73.5 174.5q50 237 -108 237h-387z" />
<glyph unicode="&#x40a;" horiz-adv-x="2203" d="M78 0l303 1427h270l-110 -518h569l111 518h268l-111 -520h457q82 0 142.5 -22.5t95.5 -62.5t51 -98t14.5 -124.5t-18.5 -146.5q-92 -453 -465 -453h-737l143 682h-569l-144 -682h-270zM1233 227h393q81 0 129 55.5t72 170.5q51 229 -111 229h-387z" />
<glyph unicode="&#x40b;" horiz-adv-x="1556" d="M156 1194l51 233h1235l-51 -233h-482l-57 -274q150 71 301 71q77 0 131 -12t95.5 -43t60 -83.5t17 -136t-26.5 -198.5l-109 -518h-254l104 498q14 66 15 112.5t-8.5 76t-32.5 46.5t-53 23t-74 6q-80 0 -143.5 -23.5t-73.5 -62.5l-144 -676h-272l252 1194h-481z" />
<glyph unicode="&#x40c;" horiz-adv-x="1359" d="M78 0l303 1427h270l-147 -688q127 103 322.5 290t383.5 398h328q-236 -254 -411 -422t-248 -219q55 -20 92 -42.5t82 -75.5t78.5 -132.5t70 -214.5t68.5 -321h-322q-27 164 -59 278t-68.5 189t-87.5 119.5t-106.5 64.5t-134.5 27l-144 -678h-270zM788 1530l322 264h281 l-381 -264h-222z" />
<glyph unicode="&#x40e;" horiz-adv-x="1196" d="M135 -2q167 174 314 362q-36 231 -117 542.5t-162 524.5h322q56 -164 108.5 -374t81.5 -398q341 488 500 772h305q-213 -351 -493 -745.5t-517 -681.5q-227 0 -342 -2zM623 1784h174q-14 -69 11.5 -94t98.5 -25q142 0 162 119h164q-32 -144 -123 -212.5t-242 -68.5 q-307 0 -245 281z" />
<glyph unicode="&#x40f;" horiz-adv-x="1507" d="M80 0l303 1427h270l-252 -1183h611l252 1183h266l-303 -1427h-436l-125 -385h-181l39 385h-444z" />
<glyph unicode="&#x410;" horiz-adv-x="1396" d="M-121 0q167 320 393.5 714t425.5 713h424q36 -355 94.5 -752t116.5 -675h-299q-39 199 -63 356h-625q-76 -142 -184 -356h-283zM469 588h475q-42 283 -70 610h-55q-150 -249 -350 -610z" />
<glyph unicode="&#x411;" horiz-adv-x="1456" d="M78 0l303 1427h1028l-51 -233h-758l-70 -336h498q196 0 264 -109.5t23 -324.5q-48 -226 -162.5 -325t-294.5 -99h-780zM395 227h451q138 0 180 201q45 211 -100 211h-443z" />
<glyph unicode="&#x412;" horiz-adv-x="1458" d="M78 0l303 1427h768q104 0 169.5 -24t92 -68.5t30 -108t-15.5 -141.5q-16 -77 -37.5 -128.5t-62 -96.5t-106 -70.5t-160.5 -33.5q99 -4 159.5 -32t83.5 -75t24.5 -112.5t-17.5 -145.5q-82 -391 -451 -391h-780zM395 227h451q138 0 180 201q45 211 -100 211h-443zM530 858 h439q65 0 102 44t55 128q20 86 0.5 127t-86.5 41h-438z" />
<glyph unicode="&#x413;" horiz-adv-x="1114" d="M78 0l303 1427h965l-52 -233h-694l-252 -1194h-270z" />
<glyph unicode="&#x414;" horiz-adv-x="1642" d="M-115 -315l72 559h225q298 525 465 1183h942l-252 -1183h254l-161 -559h-238l68 315h-1072l-67 -315h-236zM475 244h594l201 950h-426q-152 -544 -369 -950z" />
<glyph unicode="&#x415;" horiz-adv-x="1269" d="M78 0l303 1427h1036l-51 -233h-766l-70 -330h547l-49 -231h-547l-84 -400h766l-49 -233h-1036z" />
<glyph unicode="&#x416;" horiz-adv-x="1955" d="M-115 0q105 186 192.5 320.5t151 214.5t126 133t106 75.5t102.5 42.5q-45 48 -136 214.5t-208 426.5h320q85 -207 184 -390.5t174 -288.5l145 679h271l-146 -679q119 105 297 288t355 391h317q-227 -258 -389 -425t-227 -216q41 -16 69.5 -34t63 -53t61 -89t54 -135 t52 -200t46.5 -275h-314q-22 164 -48.5 277.5t-58.5 189.5t-76.5 120.5t-94.5 65t-121 27.5l-143 -680h-271l144 680q-94 -10 -165.5 -41t-152.5 -105.5t-168 -202.5t-200 -331h-312z" />
<glyph unicode="&#x417;" horiz-adv-x="1314" d="M4 23l100 235q64 -19 175.5 -31t201.5 -12q203 0 288 45t110 162q26 119 -26 166t-194 47h-233l49 229h227q137 0 199 39.5t84 143.5q15 67 -4 103t-86 53.5t-201 17.5q-87 0 -202 -13t-181 -32l-4 233q257 53 492 53q308 0 416.5 -84t66.5 -280q-16 -76 -39 -130.5 t-64.5 -101.5t-108.5 -74.5t-161 -35.5q98 -4 159.5 -32.5t86 -77t26.5 -114.5t-18 -147q-48 -227 -208 -320.5t-472 -93.5q-111 0 -248.5 15t-230.5 37z" />
<glyph unicode="&#x418;" horiz-adv-x="1585" d="M78 0l303 1427h266l-229 -1077q504 604 860 1077h326l-304 -1427h-264l219 1032q-437 -576 -823 -1032h-354z" />
<glyph unicode="&#x419;" horiz-adv-x="1585" d="M78 0l303 1427h266l-229 -1077q504 604 860 1077h326l-304 -1427h-264l219 1032q-437 -576 -823 -1032h-354zM764 1784h174q-14 -69 12 -94t97 -25t110 25.5t53 93.5h164q-62 -281 -366 -281q-306 0 -244 281z" />
<glyph unicode="&#x41a;" horiz-adv-x="1359" d="M78 0l303 1427h270l-147 -688q127 103 322.5 290t383.5 398h328q-236 -254 -411 -422t-248 -219q55 -20 92 -42.5t82 -75.5t78.5 -132.5t70 -214.5t68.5 -321h-322q-27 164 -59 278t-68.5 189t-87.5 119.5t-106.5 64.5t-134.5 27l-144 -678h-270z" />
<glyph unicode="&#x41b;" horiz-adv-x="1490" d="M-39 0q201 375 351 723t241 704h958l-303 -1427h-266l252 1194h-444q-81 -281 -212 -593t-292 -601h-285z" />
<glyph unicode="&#x41c;" horiz-adv-x="1875" d="M78 0l303 1427h369q115 -423 206 -913q270 459 590 913h350l-303 -1427h-264l225 1063q-265 -398 -596 -932h-210q-121 665 -185 932l-225 -1063h-260z" />
<glyph unicode="&#x41d;" horiz-adv-x="1507" d="M78 0l303 1427h270l-116 -544h610l117 544h266l-303 -1427h-267l134 633h-611l-133 -633h-270z" />
<glyph unicode="&#x41e;" horiz-adv-x="1576" d="M123 466q6 114 37 261q46 215 117.5 359t177.5 226.5t234.5 116t305.5 33.5q117 0 205 -14t159 -47.5t114 -88.5t64.5 -136.5t16.5 -193t-36 -255.5q-46 -219 -118.5 -366.5t-178.5 -233t-235 -121t-306 -35.5q-117 0 -205.5 15t-159 50t-113 92t-64 140.5t-15.5 197.5z M412 400.5q6 -58.5 25.5 -93t61.5 -56t96 -29t136 -7.5t139.5 7.5t108.5 29t85 56t65.5 93t54.5 135t47 187.5q17 83 26.5 145.5t10.5 114t-5.5 87.5t-24.5 63t-42 43t-63 26t-83 13.5t-106 3.5q-84 0 -140 -6.5t-107 -26.5t-84.5 -52.5t-64.5 -90t-53.5 -133.5t-45.5 -187 q-24 -111 -33.5 -187.5t-3.5 -135z" />
<glyph unicode="&#x41f;" horiz-adv-x="1507" d="M78 0l303 1427h1147l-303 -1427h-267l252 1194h-610l-252 -1194h-270z" />
<glyph unicode="&#x420;" horiz-adv-x="1378" d="M78 0l303 1427h743q396 0 293 -489q-20 -95 -61 -177t-101 -148t-145 -104t-184 -38h-480l-98 -471h-270zM496 696h397q85 0 143 61.5t84 182.5q55 258 -114 258h-404z" />
<glyph unicode="&#x421;" horiz-adv-x="1212" d="M122.5 425q0.5 128 37.5 302q37 175 91 301t122.5 210t162.5 133.5t201 70t248 20.5q98 0 209.5 -15t189.5 -38l-110 -238q-50 20 -135 33t-158 13q-63 0 -109 -3t-92.5 -12t-80 -25t-66.5 -42t-57.5 -62t-48 -86.5t-42.5 -114.5t-36 -147q-24 -110 -31.5 -189.5 t3.5 -136.5t35 -91.5t71 -54.5t102.5 -27t138.5 -7q74 0 164 12.5t149 32.5l9 -241q-87 -23 -204 -37.5t-216 -14.5q-140 0 -239.5 23t-171 75.5t-104.5 140t-32.5 215.5z" />
<glyph unicode="&#x422;" horiz-adv-x="1247" d="M156 1194l51 233h1235l-51 -233h-482l-252 -1194h-272l252 1194h-481z" />
<glyph unicode="&#x423;" horiz-adv-x="1255" d="M137 0q179 187 314 362q-30 207 -115 533t-166 532h322q56 -164 108.5 -374t81.5 -398q341 488 500 772h305q-213 -351 -493 -745.5t-517 -681.5h-340z" />
<glyph unicode="&#x424;" horiz-adv-x="1636" d="M110.5 426q-27.5 115 12.5 291q23 109 56.5 188.5t87.5 143.5t131 104.5t183 64.5t248 31l39 178h269l-39 -178q235 -11 356 -69.5t151.5 -173t-8.5 -289.5q-39 -184 -115.5 -293t-224 -170t-387.5 -72l-36 -182h-269l37 182q-230 11 -347 70t-144.5 174zM377.5 540 q9.5 -68 72 -100t199.5 -37l133 623q-107 -4 -173.5 -21t-109.5 -56.5t-65 -92t-41 -141.5q-25 -107 -15.5 -175zM918 403q89 2 151.5 15t105.5 34.5t71 61t45 85t32 116.5q26 111 15.5 179.5t-76 99t-211.5 34.5z" />
<glyph unicode="&#x425;" horiz-adv-x="1380" d="M-111 0q265 262 697 721q-214 408 -385 706h346q99 -173 258 -471q235 254 428 471h332q-192 -215 -643 -700q246 -480 362 -727h-336q-192 392 -243 494q-430 -440 -484 -494h-332z" />
<glyph unicode="&#x426;" horiz-adv-x="1583" d="M78 0l303 1427h270l-252 -1183h611l252 1183h266l-252 -1183h256l-164 -559h-235l67 315h-1122z" />
<glyph unicode="&#x427;" horiz-adv-x="1366" d="M116.5 736q1.5 71 20.5 159l115 532h270l-110 -514q-12 -56 -14 -97t7 -71.5t27 -49.5t51 -30t73 -15.5t97 -4.5q138 0 224.5 34t99.5 97l139 651h270l-303 -1427h-270l96 459q-55 -28 -155.5 -47t-206.5 -19q-68 0 -122.5 6t-105.5 21t-87.5 39.5t-64.5 63.5t-40 90.5 t-10.5 122.5z" />
<glyph unicode="&#x428;" horiz-adv-x="1994" d="M78 0l303 1427h270l-252 -1183h414l252 1183h268l-252 -1183h414l252 1183h268l-303 -1427h-1634z" />
<glyph unicode="&#x429;" horiz-adv-x="2068" d="M78 0l303 1427h270l-252 -1183h414l252 1183h268l-252 -1183h414l252 1183h268l-252 -1183h254l-162 -559h-237l68 315h-1608z" />
<glyph unicode="&#x42a;" horiz-adv-x="1476" d="M147 0l252 1194h-215l52 233h485l-109 -507h498q82 0 142.5 -23.5t95.5 -64.5t51 -99.5t14.5 -126t-18.5 -147.5q-21 -101 -59 -182t-94 -144.5t-136 -98t-178 -34.5h-781zM465 227h434q80 0 129 57.5t74 174.5q50 235 -109 235h-428z" />
<glyph unicode="&#x42b;" horiz-adv-x="1914" d="M78 0l303 1427h270l-108 -507h497q82 0 142.5 -23.5t95.5 -64.5t51 -99.5t14.5 -126t-18.5 -147.5q-47 -222 -163 -340.5t-304 -118.5h-780zM395 227h434q80 0 129 57.5t74 174.5q50 235 -108 235h-428zM1362 0l303 1427h270l-303 -1427h-270z" />
<glyph unicode="&#x42c;" horiz-adv-x="1406" d="M78 0l303 1427h270l-108 -507h497q82 0 142.5 -23.5t95.5 -64.5t51 -99.5t14.5 -126t-18.5 -147.5q-47 -222 -163 -340.5t-304 -118.5h-780zM395 227h434q80 0 129 57.5t74 174.5q50 235 -108 235h-428z" />
<glyph unicode="&#x42d;" horiz-adv-x="1261" d="M-45 23l111 241q49 -20 138.5 -32.5t164.5 -12.5q91 0 155.5 9.5t124 35t101.5 72t77 120t62 179.5h-610l49 229h608q6 51 6.5 93.5t-4 76t-16.5 59.5t-27.5 45.5t-40 33t-51 22.5t-63 14t-73.5 7t-85 2q-75 0 -170.5 -13t-153.5 -33l-8 238q87 23 209 38t221 15 q118 0 205.5 -14t159 -46.5t114.5 -88t65 -136.5t16.5 -193t-36.5 -257q-46 -216 -118.5 -363t-178.5 -233.5t-236 -123t-306 -36.5q-100 0 -216.5 14.5t-193.5 37.5z" />
<glyph unicode="&#x42e;" horiz-adv-x="1978" d="M78 0l303 1427h270l-116 -544h315q47 167 113 281.5t153 179t184.5 91.5t223.5 27q111 0 190.5 -20t138.5 -70t85.5 -132.5t23.5 -209t-39 -297.5q-46 -217 -113.5 -366t-158.5 -235.5t-197.5 -123.5t-245.5 -37q-85 0 -152 14t-121.5 45t-90 82.5t-54.5 124t-17.5 172 t22.5 224.5h-314l-133 -633h-270zM1053 365q6 -60 33 -92t68 -45t106 -13q111 0 176 40.5t113.5 150t95.5 327.5q23 110 34 186.5t8.5 132.5t-14.5 88.5t-41.5 51.5t-65.5 25t-93 6q-84 0 -135 -15.5t-97.5 -67.5t-79.5 -148t-67 -259q-28 -131 -37.5 -219.5t-3.5 -148.5z " />
<glyph unicode="&#x42f;" horiz-adv-x="1445" d="M-47 0q109 194 188 313t146 185t118.5 91t122.5 36q-103 4 -171 36t-97 84.5t-35.5 121t13.5 145.5q18 90 54 162t92.5 130.5t143 90.5t195.5 32h743l-303 -1427h-270l115 545h-228q-53 0 -93.5 -11.5t-88 -44t-95.5 -93.5t-107 -157.5t-132 -238.5h-311zM530 977 q-23 -103 9.5 -156t111.5 -53h404l92 430h-410q-77 0 -130.5 -55.5t-76.5 -165.5z" />
<glyph unicode="&#x430;" horiz-adv-x="1204" d="M84 283q0 88 29 233q33 160 84.5 267.5t128.5 171.5t173.5 91t229.5 27q116 0 240.5 -21.5t199.5 -56.5l-145 -676q-10 -48 -10 -81q0 -83 61 -150l-217 -125q-40 14 -70 52.5t-38 78.5q-56 -54 -139.5 -86.5t-176.5 -32.5q-178 0 -264 69t-86 239zM350 348 q0 -87 43.5 -120t145.5 -33q88 0 154.5 33.5t78.5 90.5l109 510q-84 35 -195 35q-72 0 -116.5 -12t-83 -49.5t-63.5 -104t-48 -178.5q-25 -113 -25 -172z" />
<glyph unicode="&#x431;" horiz-adv-x="1177" d="M100 339q3 111 35 263q36 171 74 295.5t85 213.5t96 145t118.5 91t140.5 50.5t172 23.5q250 20 408 80l-47 -225q-116 -48 -396 -72q-78 -7 -131 -26.5t-90 -60t-59.5 -87t-50.5 -125.5q120 123 309 123q84 0 144 -14.5t106 -50t67 -94.5t20.5 -149.5t-26.5 -213.5 q-33 -156 -83.5 -259t-127 -164.5t-172 -86.5t-229.5 -25q-93 0 -158 16t-115 58t-71.5 112.5t-18.5 181.5zM353.5 306.5q10.5 -71.5 47.5 -99t111 -27.5q71 0 113 10t80 44t62.5 97.5t47.5 170.5q20 95 21.5 154t-18.5 93.5t-57.5 47t-101.5 12.5q-135 0 -192 -62.5 t-94 -244.5q-30 -124 -19.5 -195.5z" />
<glyph unicode="&#x432;" horiz-adv-x="1187" d="M39 0l221 1042h629q87 0 141.5 -17t78 -49.5t27.5 -78.5t-10 -104q-12 -55 -29.5 -94t-49.5 -71.5t-83.5 -51t-125.5 -23.5q76 -2 124 -22.5t68 -55.5t23 -83.5t-11 -106.5q-60 -285 -366 -285h-637zM334 197h311q60 0 92 27t45 91q15 70 -7.5 103t-82.5 33h-305z M428 637h301q54 0 82.5 25.5t40.5 80.5q12 59 -6 81t-74 22h-301z" />
<glyph unicode="&#x433;" horiz-adv-x="868" d="M39 0l221 1042h725l-47 -221h-471l-174 -821h-254z" />
<glyph unicode="&#x434;" horiz-adv-x="1329" d="M-98 -289l49 510h186q218 435 322 821h778l-176 -821h201l-166 -510h-203l61 289h-786l-62 -289h-204zM403 221h404l129 600h-293q-77 -259 -240 -600z" />
<glyph unicode="&#x435;" horiz-adv-x="1130" d="M89.5 336.5q1.5 84.5 23.5 189.5q32 154 87.5 261.5t133.5 169.5t170.5 89t210.5 27q104 0 173 -16t118.5 -56t67 -110t9.5 -177t-45 -259h-673q-11 -56 -12.5 -97.5t7.5 -71.5t26 -49.5t46 -30.5t63.5 -15.5t82.5 -4.5q58 0 148.5 12.5t152.5 30.5l-2 -200 q-82 -26 -188 -42t-187 -16q-78 0 -140 11.5t-114.5 37t-87 68.5t-53.5 103.5t-17.5 145zM408 649h438q23 134 -12 178.5t-148 44.5q-120 0 -179 -47t-99 -176z" />
<glyph unicode="&#x436;" horiz-adv-x="1636" d="M-98 0q106 164 189.5 274t145.5 166.5t100 80t87 42.5q-38 38 -114.5 166t-162.5 313h293q140 -299 262 -495l107 495h254l-107 -495q173 162 478 495h292q-164 -183 -295.5 -311.5t-185.5 -167.5q33 -15 55 -30t53 -53.5t57 -94.5t57 -154t61 -231h-289q-31 129 -67 221 t-74.5 144t-74.5 78.5t-79 39.5l-102 -483h-254l102 483q-50 -13 -97 -39.5t-107.5 -78.5t-133.5 -143.5t-159 -221.5h-291z" />
<glyph unicode="&#x437;" horiz-adv-x="1056" d="M-37 10l100 228q131 -50 318 -50q145 0 201 30t71 108q15 72 -30 100.5t-166 28.5h-160l39 190h160q114 0 163.5 22t61.5 83q12 60 -29 83t-170 23q-180 0 -327 -45l-7 221q182 41 385 41q185 0 283.5 -26.5t131 -83.5t11.5 -158q-25 -117 -92.5 -180t-210.5 -74 q149 -7 197 -77.5t20 -197.5q-36 -174 -165 -239.5t-408 -65.5q-218 0 -377 39z" />
<glyph unicode="&#x438;" horiz-adv-x="1214" d="M39 0l221 1042h254l-141 -663q234 234 565 663h254l-221 -1042h-254l135 637q-243 -314 -559 -637h-254z" />
<glyph unicode="&#x439;" horiz-adv-x="1214" d="M39 0l221 1042h254l-141 -663q234 234 565 663h254l-221 -1042h-254l135 637q-243 -314 -559 -637h-254zM502 1427h174q-14 -69 11.5 -93.5t98.5 -24.5q142 0 162 118h164q-32 -144 -122.5 -212t-241.5 -68q-308 0 -246 280z" />
<glyph unicode="&#x43a;" horiz-adv-x="1128" d="M39 0l221 1042h254l-106 -501q204 184 510 501h301q-386 -404 -498 -477q34 -14 57 -30t54.5 -54t58.5 -95.5t61 -154.5t70 -231h-297q-29 109 -60 190t-61.5 132t-66 85t-68.5 50.5t-74 25.5l-102 -483h-254z" />
<glyph unicode="&#x43b;" horiz-adv-x="1171" d="M-35 0q119 229 225 500.5t179 541.5h778l-221 -1042h-254l174 821h-283q-61 -203 -150 -422.5t-182 -398.5h-266z" />
<glyph unicode="&#x43c;" horiz-adv-x="1542" d="M39 0l221 1042h371q70 -266 137 -620q185 312 397 620h355l-222 -1042h-251l159 760q-208 -310 -434 -699h-190q-80 500 -131 699l-160 -760h-252z" />
<glyph unicode="&#x43d;" horiz-adv-x="1202" d="M39 0l221 1042h254l-82 -383h410l82 383h254l-222 -1042h-254l93 442h-410l-92 -442h-254z" />
<glyph unicode="&#x43e;" horiz-adv-x="1204" d="M86.5 304q-0.5 94 26.5 222q33 158 86 265t131 168.5t172 87.5t223 26q86 0 151 -11t116.5 -36t83 -66.5t47 -102t11.5 -143t-26 -188.5q-34 -159 -86.5 -267t-130 -171.5t-173 -90t-226.5 -26.5q-103 0 -176 16.5t-126.5 55.5t-78 103t-25 158zM351.5 375 q-4.5 -59 2 -98.5t31 -60.5t59.5 -29.5t91 -8.5q96 0 150 26t92 99t69 219q19 91 24 151t-2 99t-33 59t-61 27.5t-94 7.5q-72 0 -115 -11.5t-80 -48.5t-61.5 -103.5t-48.5 -180.5q-19 -88 -23.5 -147z" />
<glyph unicode="&#x43f;" horiz-adv-x="1202" d="M39 0l221 1042h918l-222 -1042h-254l175 821h-410l-174 -821h-254z" />
<glyph unicode="&#x440;" horiz-adv-x="1204" d="M-45 -393l295 1388q91 35 224 56.5t249 21.5q106 0 181 -16.5t128 -54.5t77.5 -102t24 -157t-27.5 -221q-33 -156 -86.5 -264.5t-127.5 -170.5t-160 -89t-195 -27q-132 0 -238 60l-90 -424h-254zM352 287q-9 -45 44.5 -73t140.5 -28q135 0 200.5 69t106.5 261 q19 87 23 145.5t-3.5 97t-33.5 59t-61.5 28.5t-92.5 8q-121 0 -209 -31z" />
<glyph unicode="&#x441;" horiz-adv-x="962" d="M89 336q2 84 24 190q33 156 91.5 264.5t141.5 169.5t179 87t220 26q77 0 166 -14t142 -35l-105 -217q-106 45 -231 45q-76 0 -124 -11t-92 -45t-73.5 -100.5t-52.5 -173.5q-18 -82 -19.5 -140t11 -95t42.5 -57.5t68.5 -28.5t97.5 -8q123 0 254 49l11 -217 q-64 -24 -158 -39t-170 -15q-82 0 -146 11.5t-118 37t-88.5 68.5t-53.5 103.5t-17 144.5z" />
<glyph unicode="&#x442;" horiz-adv-x="993" d="M82 821l47 221h973l-47 -221h-361l-174 -821h-254l174 821h-358z" />
<glyph unicode="&#x443;" horiz-adv-x="1046" d="M12 -393q90 116 242 342q-37 592 -135 1093h264q63 -334 90 -790q267 450 426 790h258q-248 -491 -627 -1085q-129 -203 -235 -350h-283z" />
<glyph unicode="&#x444;" horiz-adv-x="1720" d="M86.5 302q1.5 94 28.5 220q34 160 81.5 266t118.5 169.5t160.5 89.5t214.5 26q69 0 164 -20l84 399h254l-84 -399q98 20 172 20q100 0 169 -16.5t117 -54.5t68 -102t17.5 -157t-29.5 -221q-33 -156 -83.5 -264.5t-118.5 -170.5t-146.5 -89t-179.5 -27q-124 0 -203 60 l-90 -424h-254l90 424q-106 -60 -227 -60q-81 0 -139.5 16.5t-102 55.5t-63.5 102t-18.5 157zM341 315.5q9 -73.5 46.5 -101.5t112.5 -28q76 0 128.5 27t61.5 72l115 542q-73 27 -162 27q-60 0 -99 -12.5t-74 -49t-60 -102.5t-48 -174q-30 -127 -21 -200.5zM944 281 q-9 -44 32.5 -69.5t117.5 -25.5q111 0 173.5 71t102.5 259q18 86 23 145.5t-1.5 97.5t-28.5 59t-52 28.5t-78 7.5q-91 0 -174 -27z" />
<glyph unicode="&#x445;" horiz-adv-x="1067" d="M-90 0q209 197 514 520q-151 304 -291 522h303q84 -142 172 -319q108 116 283 319h283q-211 -238 -469 -514q121 -243 249 -528h-286q-45 111 -150 330q-166 -175 -325 -330h-283z" />
<glyph unicode="&#x446;" horiz-adv-x="1302" d="M39 0l221 1042h254l-176 -821h410l176 821h254l-177 -821h234l-166 -510h-205l62 289h-887z" />
<glyph unicode="&#x447;" horiz-adv-x="1138" d="M115.5 589.5q1.5 83.5 25.5 198.5l56 254h254l-52 -233q-13 -66 -14 -112.5t9 -76t33.5 -46.5t53.5 -23t74 -6q82 0 145.5 24.5t73.5 67.5l86 405h254l-221 -1042h-254l82 387q-63 -30 -145 -51t-158 -21q-77 0 -130.5 12t-95.5 42.5t-60 83.5t-16.5 136.5z" />
<glyph unicode="&#x448;" horiz-adv-x="1757" d="M39 0l221 1042h254l-176 -821h356l176 821h254l-176 -821h355l176 821h254l-222 -1042h-1472z" />
<glyph unicode="&#x449;" horiz-adv-x="1857" d="M39 0l221 1042h254l-176 -821h356l176 821h254l-176 -821h355l176 821h254l-177 -821h234l-166 -510h-205l62 289h-1442z" />
<glyph unicode="&#x44a;" horiz-adv-x="1251" d="M82 821l47 221h455l-80 -376h366q160 0 223.5 -83.5t28.5 -246.5q-37 -180 -133 -258t-260 -78h-620l174 821h-201zM401 188h308q118 0 147 144q15 73 -8 105t-84 32h-303z" />
<glyph unicode="&#x44b;" horiz-adv-x="1589" d="M39 0l221 1042h254l-80 -376h367q160 0 223.5 -83.5t28.5 -246.5q-37 -180 -133 -258t-261 -78h-620zM332 188h307q59 0 94.5 34t52.5 110q15 73 -8 105t-84 32h-303zM1092 0l221 1042h254l-221 -1042h-254z" />
<glyph unicode="&#x44c;" horiz-adv-x="1181" d="M39 0l221 1042h254l-80 -376h367q160 0 223.5 -83.5t28.5 -246.5q-37 -180 -133 -258t-261 -78h-620zM332 188h307q118 0 147 144q15 73 -8 105t-84 32h-303z" />
<glyph unicode="&#x44d;" horiz-adv-x="985" d="M-49 25l98 202q94 -43 238 -43q63 0 110 12t88 41.5t71 83t52 134.5h-415l40 194h412q10 124 -42.5 166.5t-172.5 42.5q-153 0 -254 -39l-12 205q62 21 156.5 35t171.5 14q79 0 142 -11t116.5 -36t88.5 -67t54.5 -101.5t18.5 -143t-23 -188.5q-33 -157 -92.5 -267 t-143 -172t-179 -89t-216.5 -27q-76 0 -164 15t-143 39z" />
<glyph unicode="&#x44e;" horiz-adv-x="1736" d="M39 0l221 1042h254l-82 -383h268q38 118 91.5 199t125.5 128t156.5 67t194.5 20q101 0 172.5 -16t124 -54t77 -100.5t25 -156t-26.5 -220.5q-33 -159 -86 -267t-129.5 -171t-170 -90t-220.5 -27q-92 0 -159.5 14.5t-119.5 47.5t-78 87.5t-35 134.5t9 187h-266l-92 -442 h-254zM899.5 345.5q-3.5 -66.5 16.5 -105t57 -51.5t104 -13q68 0 112 13t80.5 51.5t62 105.5t48.5 176q19 91 24 151t-1.5 99.5t-31 60t-58 28t-88.5 7.5q-68 0 -109.5 -12t-78.5 -49t-62 -104.5t-49 -180.5q-23 -110 -26.5 -176.5z" />
<glyph unicode="&#x44f;" horiz-adv-x="1214" d="M-51 0q111 180 188 274t137 130t140 47q-80 3 -134.5 27.5t-78 63.5t-30.5 89.5t7 105.5q29 138 124 221.5t271 83.5h619l-221 -1042h-254l78 371h-158q-72 0 -124.5 -27t-117 -107t-155.5 -237h-291zM446 707q-29 -136 101 -136h291l55 267h-297q-62 0 -98.5 -30 t-51.5 -101z" />
<glyph unicode="&#x451;" horiz-adv-x="1130" d="M89.5 336.5q1.5 84.5 23.5 189.5q32 154 87.5 261.5t133.5 169.5t170.5 89t210.5 27q104 0 173 -16t118.5 -56t67 -110t9.5 -177t-45 -259h-673q-11 -56 -12.5 -97.5t7.5 -71.5t26 -49.5t46 -30.5t63.5 -15.5t82.5 -4.5q58 0 148.5 12.5t152.5 30.5l-2 -200 q-82 -26 -188 -42t-187 -16q-78 0 -140 11.5t-114.5 37t-87 68.5t-53.5 103.5t-17.5 145zM408 649h438q23 134 -12 178.5t-148 44.5q-120 0 -179 -47t-99 -176zM422 1282q15 71 43 92t100 21t93.5 -21t7.5 -92q-18 -79 -49 -103t-103 -24t-91 24t-1 103zM858 1282 q15 71 44 92t102 21q71 0 91.5 -21t6.5 -92q-18 -79 -48.5 -103t-101.5 -24q-73 0 -92.5 24t-1.5 103z" />
<glyph unicode="&#x452;" horiz-adv-x="1179" d="M39 0l252 1190h-105l37 178h105l24 111h254l-24 -111h211l-37 -178h-211l-45 -213q60 31 142.5 51.5t158.5 20.5q82 0 137.5 -14.5t97.5 -52.5t58 -104.5t10 -172t-37 -252.5q-38 -180 -98 -328.5t-129.5 -246t-137 -159.5t-135.5 -94l-143 174q57 28 105 70t98 114.5 t93.5 188.5t76.5 272q21 97 27 162t1 106t-27 62.5t-52 29t-80 7.5q-80 0 -144.5 -23.5t-75.5 -64.5l-153 -723h-254z" />
<glyph unicode="&#x453;" horiz-adv-x="868" d="M39 0l221 1042h725l-47 -219h-471l-174 -823h-254zM473 1163l305 264h273l-355 -264h-223z" />
<glyph unicode="&#x454;" horiz-adv-x="985" d="M90 336.5q1 84.5 23 189.5q33 156 92.5 264.5t143 169.5t179 87t215.5 26q77 0 166 -14t142 -35l-99 -205q-88 39 -237 39q-59 0 -101.5 -8t-82.5 -30t-69.5 -64.5t-51.5 -106.5h411l-41 -194h-415q-17 -107 3.5 -167.5t69 -82t133.5 -21.5q139 0 254 43l13 -202 q-64 -24 -157 -39t-169 -15q-79 0 -142.5 11.5t-117 37t-89 68.5t-55 103.5t-18.5 145z" />
<glyph unicode="&#x455;" horiz-adv-x="1005" d="M2 27l96 200q54 -21 138.5 -35t160.5 -14q112 0 164 25t68 102q13 58 -27.5 85.5t-169.5 39.5q-179 14 -250 78.5t-39 218.5q21 99 67.5 167.5t116.5 107t151.5 55t185.5 16.5q181 0 337 -57l-98 -199q-138 49 -293 49q-104 0 -150.5 -22.5t-62.5 -98.5q-12 -54 27 -77 t164 -35q189 -21 259 -91t38 -223q-21 -99 -67 -168t-115.5 -107.5t-151 -55.5t-186.5 -17q-88 0 -192.5 15.5t-170.5 40.5z" />
<glyph unicode="&#x456;" horiz-adv-x="536" d="M39 0l221 1042h254l-221 -1042h-254zM307 1352q17 79 51.5 102t122.5 23q87 0 111.5 -23t7.5 -102q-20 -88 -55 -115t-121 -27q-88 0 -112.5 27t-4.5 115z" />
<glyph unicode="&#x457;" horiz-adv-x="536" d="M39 0l221 1042h254l-221 -1042h-254zM98 1282q15 71 43.5 92t100.5 21t93 -21t7 -92q-18 -79 -49 -103t-103 -24t-91 24t-1 103zM535 1282q15 71 43.5 92t101.5 21q71 0 91.5 -21t6.5 -92q-18 -79 -48.5 -103t-100.5 -24q-73 0 -92.5 24t-1.5 103z" />
<glyph unicode="&#x458;" horiz-adv-x="536" d="M-223 -416l45 211q91 0 140.5 38t68.5 138l229 1071h254l-227 -1065q-24 -115 -66.5 -191.5t-108 -121t-145 -62.5t-190.5 -18zM307 1352q17 79 51.5 102t122.5 23q87 0 111.5 -23t7.5 -102q-20 -88 -55 -115t-121 -27q-88 0 -112.5 27t-4.5 115z" />
<glyph unicode="&#x459;" horiz-adv-x="1814" d="M-35 0q119 229 225 500.5t179 541.5h778l-80 -376h367q160 0 223.5 -83.5t28.5 -246.5q-37 -180 -133 -258t-261 -78h-620l174 821h-283q-61 -203 -150 -422.5t-182 -398.5h-266zM965 188h307q118 0 147 144q15 73 -8 105t-84 32h-303z" />
<glyph unicode="&#x45a;" horiz-adv-x="1845" d="M39 0l221 1042h254l-80 -376h410l80 376h254l-80 -376h366q160 0 223.5 -83.5t28.5 -246.5q-37 -180 -133 -258t-260 -78h-621l99 469h-410l-98 -469h-254zM995 188h308q118 0 147 146q17 73 -6.5 104t-85.5 31h-303z" />
<glyph unicode="&#x45b;" horiz-adv-x="1193" d="M39 0l252 1190h-105l37 178h105l24 111h254l-24 -111h211l-37 -178h-211l-41 -189q64 30 146.5 51t156.5 21q77 0 130.5 -12t95 -42.5t59.5 -83.5t16.5 -136.5t-25.5 -198.5l-127 -600h-254l123 580q14 66 15 112.5t-8.5 76t-33 46.5t-53 23t-73.5 6q-83 0 -146.5 -24.5 t-72.5 -67.5l-160 -752h-254z" />
<glyph unicode="&#x45c;" horiz-adv-x="1128" d="M39 0l221 1042h254l-106 -501q204 184 510 501h301q-386 -404 -498 -477q34 -14 57 -30t54.5 -54t58.5 -95.5t61 -154.5t70 -231h-297q-29 109 -60 190t-61.5 132t-66 85t-68.5 50.5t-74 25.5l-102 -483h-254zM582 1163l305 264h272l-354 -264h-223z" />
<glyph unicode="&#x45e;" horiz-adv-x="1046" d="M12 -393q90 116 242 342q-37 592 -135 1093h264q63 -334 90 -790q267 450 426 790h258q-248 -491 -627 -1085q-129 -203 -235 -350h-283zM420 1432h174q-14 -69 11.5 -94t96.5 -25t110.5 25.5t53.5 93.5h164q-62 -281 -366 -281q-306 0 -244 281z" />
<glyph unicode="&#x45f;" horiz-adv-x="1202" d="M39 0l221 1042h254l-176 -821h410l176 821h254l-222 -1042h-319l-121 -365h-180l35 365h-332z" />
<glyph unicode="&#x490;" horiz-adv-x="1114" d="M78 0l303 1427h717l143 365h180l-127 -598h-694l-252 -1194h-270z" />
<glyph unicode="&#x491;" horiz-adv-x="868" d="M39 0l221 1042h504l133 336h160l-119 -557h-471l-174 -821h-254z" />
<glyph unicode="&#x2000;" horiz-adv-x="897" />
<glyph unicode="&#x2001;" horiz-adv-x="1794" />
<glyph unicode="&#x2002;" horiz-adv-x="897" />
<glyph unicode="&#x2003;" horiz-adv-x="1794" />
<glyph unicode="&#x2004;" horiz-adv-x="598" />
<glyph unicode="&#x2005;" horiz-adv-x="448" />
<glyph unicode="&#x2006;" horiz-adv-x="299" />
<glyph unicode="&#x2007;" horiz-adv-x="299" />
<glyph unicode="&#x2008;" horiz-adv-x="224" />
<glyph unicode="&#x2009;" horiz-adv-x="358" />
<glyph unicode="&#x200a;" horiz-adv-x="99" />
<glyph unicode="&#x2010;" horiz-adv-x="622" d="M53 455l51 241h504l-51 -241h-504z" />
<glyph unicode="&#x2011;" horiz-adv-x="622" d="M53 455l51 241h504l-51 -241h-504z" />
<glyph unicode="&#x2012;" horiz-adv-x="622" d="M53 455l51 241h504l-51 -241h-504z" />
<glyph unicode="&#x2013;" horiz-adv-x="1183" d="M94 455l51 241h983l-51 -241h-983z" />
<glyph unicode="&#x2014;" horiz-adv-x="1771" d="M94 455l51 241h1571l-51 -241h-1571z" />
<glyph unicode="&#x2018;" horiz-adv-x="522" d="M166 1034l338 537h205l-275 -537h-268z" />
<glyph unicode="&#x2019;" horiz-adv-x="522" d="M162 1024l272 537h268l-335 -537h-205z" />
<glyph unicode="&#x201a;" horiz-adv-x="501" d="M-133 -326l270 537h269l-336 -537h-203z" />
<glyph unicode="&#x201c;" horiz-adv-x="921" d="M166 1034l338 537h205l-275 -537h-268zM563 1034l338 537h205l-275 -537h-268z" />
<glyph unicode="&#x201d;" horiz-adv-x="921" d="M162 1026l274 537h269l-338 -537h-205zM559 1026l275 537h268l-338 -537h-205z" />
<glyph unicode="&#x201e;" horiz-adv-x="921" d="M-125 -336l270 537h269l-336 -537h-203zM270 -336l273 537h268l-336 -537h-205z" />
<glyph unicode="&#x2022;" horiz-adv-x="1204" d="M116 448q0 94 27 222q27 127 67 220.5t92 156t122 100.5t149.5 54t182.5 16q86 0 151 -11t116.5 -36t83 -66.5t47 -102t11.5 -143t-26 -188.5q-33 -159 -86.5 -267t-131.5 -171.5t-174 -90t-227 -26.5q-103 0 -176 16.5t-126 55.5t-77.5 103t-24.5 158z" />
<glyph unicode="&#x2026;" horiz-adv-x="2336" d="M217 150q19 90 57 116.5t132 26.5q98 0 125.5 -26t7.5 -117q-21 -99 -61.5 -129.5t-137.5 -30.5q-92 0 -118 31t-5 129zM934 150q19 90 57.5 116.5t132.5 26.5q96 0 123.5 -26.5t7.5 -116.5q-21 -99 -61 -129.5t-135 -30.5q-93 0 -119.5 31t-5.5 129zM1655 150 q19 90 57.5 116.5t130.5 26.5q98 0 125.5 -26t7.5 -117q-21 -99 -61 -129.5t-137 -30.5q-91 0 -117.5 31t-5.5 129z" />
<glyph unicode="&#x202f;" horiz-adv-x="358" />
<glyph unicode="&#x2039;" horiz-adv-x="808" d="M88 639l674 571l115 -149l-451 -418l270 -426l-176 -154z" />
<glyph unicode="&#x203a;" horiz-adv-x="808" d="M-2 215l451 418l-271 428l174 151l436 -573l-675 -573z" />
<glyph unicode="&#x205f;" horiz-adv-x="448" />
<glyph unicode="&#x20ac;" horiz-adv-x="960" d="M89 336q2 84 24 190q27 125 70.5 220t99 156.5t128 100t151 54.5t173.5 16q76 0 159.5 -13.5t137.5 -35.5l-96 -188q-90 38 -225 38q-97 0 -158.5 -29.5t-103.5 -107.5h382l-30 -141h-410q-4 -12 -16 -74q-11 -46 -13 -65h410l-31 -140h-385q9 -81 59 -114t146 -33 q129 0 244 43l14 -188q-65 -24 -153.5 -39t-163.5 -15q-79 0 -142 11.5t-115.5 37t-86.5 68.5t-52.5 103.5t-16.5 144.5z" />
<glyph unicode="&#x2122;" horiz-adv-x="1687" d="M180 1268l35 159h647l-35 -159h-231l-123 -576h-182l123 576h-234zM782 692l158 735h240l80 -497l286 497h230l-158 -735h-172l108 512l-280 -483h-141l-70 483l-109 -512h-172z" />
<glyph unicode="&#x25fc;" horiz-adv-x="1044" d="M0 0v1044h1044v-1044h-1044z" />
</font>
</defs>
</svg>
